<?xml version="1.0" encoding="UTF-8" standalone="no"?>
<!-- Created with Inkscape (http://www.inkscape.org/) -->

<svg
   xmlns:dc="http://purl.org/dc/elements/1.1/"
   xmlns:cc="http://creativecommons.org/ns#"
   xmlns:rdf="http://www.w3.org/1999/02/22-rdf-syntax-ns#"
   xmlns:svg="http://www.w3.org/2000/svg"
   xmlns="http://www.w3.org/2000/svg"
   xmlns:sodipodi="http://sodipodi.sourceforge.net/DTD/sodipodi-0.dtd"
   xmlns:inkscape="http://www.inkscape.org/namespaces/inkscape"
   width="200"
   height="200"
   id="svg2"
   version="1.1"
   inkscape:version="0.48.1 "
   sodipodi:docname="sextship.svg"
   inkscape:export-filename="C:\Users\Curuinor\Dropbox\Projects\fkit\sextship.png"
   inkscape:export-xdpi="31.285456"
   inkscape:export-ydpi="31.285456">
  <defs
     id="defs4" />
  <sodipodi:namedview
     id="base"
     pagecolor="#ffffff"
     bordercolor="#666666"
     borderopacity="1.0"
     inkscape:pageopacity="0.0"
     inkscape:pageshadow="2"
     inkscape:zoom="2.8"
     inkscape:cx="20.072459"
     inkscape:cy="68.933364"
     inkscape:document-units="px"
     inkscape:current-layer="layer1"
     showgrid="false"
     inkscape:window-width="1920"
     inkscape:window-height="1005"
     inkscape:window-x="-9"
     inkscape:window-y="-9"
     inkscape:window-maximized="1" />
  <metadata
     id="metadata7">
    <rdf:RDF>
      <cc:Work
         rdf:about="">
        <dc:format>image/svg+xml</dc:format>
        <dc:type
           rdf:resource="http://purl.org/dc/dcmitype/StillImage" />
        <dc:title></dc:title>
      </cc:Work>
    </rdf:RDF>
  </metadata>
  <g
     inkscape:label="Layer 1"
     inkscape:groupmode="layer"
     id="layer1"
     transform="translate(0,-852.36218)">
    <path
       sodipodi:type="arc"
       style="opacity:0.65714285;fill:#ffffff;fill-opacity:1;fill-rule:evenodd;stroke:#ffffff;stroke-width:5;stroke-linecap:square;stroke-linejoin:miter;stroke-miterlimit:4;stroke-opacity:1;stroke-dasharray:none;stroke-dashoffset:0"
       id="path2985"
       sodipodi:cx="101.07143"
       sodipodi:cy="100.71429"
       sodipodi:rx="101.07143"
       sodipodi:ry="101.07143"
       d="m 202.14285,100.71429 c 0,55.8202 -45.25122,101.07142 -101.07142,101.07142 C 45.251219,201.78571 0,156.53449 0,100.71429 0,44.894079 45.251219,-0.35713959 101.07143,-0.35713959 c 55.8202,0 101.07142,45.25121859 101.07142,101.07142959 z"
       transform="translate(0,852.36218)"
       inkscape:export-xdpi="30.416414"
       inkscape:export-ydpi="30.416414" />
    <path
       sodipodi:type="star"
       style="fill:#ff7f00;fill-opacity:1;fill-rule:evenodd;stroke:#ffffff;stroke-width:5;stroke-linecap:square;stroke-linejoin:miter;stroke-miterlimit:4;stroke-opacity:1;stroke-dasharray:none;stroke-dashoffset:0"
       id="path2983"
       sodipodi:sides="6"
       sodipodi:cx="-135.71429"
       sodipodi:cy="79.285713"
       sodipodi:r1="0.79930609"
       sodipodi:r2="79.930611"
       sodipodi:arg1="0.53965322"
       sodipodi:arg2="1.063252"
       inkscape:flatsided="false"
       inkscape:rounded="-10"
       inkscape:randomized="0"
       d="M -135.02858,79.696427 C 272.13398,-600.08801 -789.37075,534.26964 -96.865412,149.14033 595.63993,-235.98899 -928.019,67.364014 -135.72713,80.084916 656.56475,92.805819 -856.57016,-259.30542 -176.78572,147.85714 502.99872,555.0197 -521.54215,-612.83114 -136.41284,79.674202 248.71647,772.17954 -202.91371,-714.28935 -215.6346,78.002526 -228.3555,870.2944 270.76255,-600.90944 -136.40001,78.874999 -543.56257,758.65944 517.94216,-375.69822 -174.56318,9.4311011 -867.06852,394.56042 656.59041,91.207412 -135.70146,78.48651 -927.99334,65.765608 585.14158,417.87685 -94.642867,10.714288 -774.42731,-396.44827 250.11356,771.40257 -135.01575,78.897224 -520.14506,-613.60812 -68.514883,872.86078 -55.793984,80.5689 -43.073086,-711.72298 -542.19114,759.48087 -135.02858,79.696427 z"
       transform="matrix(0.41922326,0,0,0.41096869,156.89458,919.77823)"
       inkscape:transform-center-x="0.048150028"
       inkscape:transform-center-y="-2.0488349"
       inkscape:export-xdpi="33.762283"
       inkscape:export-ydpi="33.762283" />
  </g>
</svg>
